<svg xmlns="http://www.w3.org/2000/svg" width="242" height="284"><path d="M87.5 256c-37.452-.36-52.755-.837-54.698-1.705-4.153-1.856-10.708-8.212-13.124-12.727L17.5 237.5l-.27-97.434c-.296-107.34-.55-102.583 5.879-110.382 1.701-2.064 5.41-4.975 8.242-6.468L36.5 20.5H101c62.415 0 64.638.065 68.755 2 5.252 2.47 46.412 43.147 49.58 49 2.117 3.91 2.172 5.022 2.462 49.75.28 43.043 0 48.466-2.309 44.731-.817-1.323-9.197-5.504-12.738-6.357l-2.75-.662V87h-21.48c-17.489 0-22.234-.302-25.538-1.624C150.466 82.769 150 80.98 150 58.55V39H40.349l-2.175 2.314L36 43.63V233.09l2.455 2.454L40.909 238h75.132l11.73 8.71c6.45 4.791 11.916 8.841 12.146 9 .229.16.229.402 0 .54-.23.137-23.817.025-52.417-.25Zm96.5-.167c0-.366.352-.816.783-1 .43-.183 8.608-10.008 18.174-21.833 9.565-11.825 17.812-21.95 18.326-22.5.582-.622.764 4.097.481 12.5-.382 11.348-.815 14.255-2.714 18.238-2.603 5.459-7.682 10.281-13.5 12.816-4 1.743-21.55 3.192-21.55 1.78zm-41.294-20.309C128.052 223.028 125 219.395 125 214.45c0-3.571 5.889-9.45 9.466-9.45 4.014 0 6.229 1.527 15.82 10.907 4.831 4.726 9.31 8.593 9.951 8.593 1.415 0 9.793-9.865 22.08-26 14.124-18.547 16.133-20.5 21.088-20.5 5.344 0 8.243 2.094 9.72 7.02 1.1 3.672.978 4.263-1.721 8.421-3.53 5.436-32.14 40.92-39.389 48.852-4.938 5.404-5.467 5.707-9.947 5.707-4.608 0-5.116-.327-19.362-12.476zm-77.15-46.747c-2.335-3.335-2.322-51.868.015-54.206 1.282-1.28 4.199-1.571 15.8-1.571 9.734 0 14.608.38 15.429 1.2.872.872 1.2 8.362 1.2 27.429 0 22.51-.223 26.45-1.571 27.8C95.15 190.706 92.263 191 80.985 191c-13.2 0-13.947-.107-15.428-2.223ZM110.2 189.8c-.898-.898-1.2-12.606-1.2-46.525V97.95l2.565-.975c1.41-.536 7.836-.975 14.278-.975 8.982 0 12.23.363 13.934 1.557L142 99.113v44.372c0 39.005-.19 44.562-1.571 45.944-1.276 1.276-4.153 1.571-15.3 1.571-9.345 0-14.112-.383-14.929-1.2zm42.407-.382c-1.21-3.153-.675-43.95.593-45.218 1.672-1.672 28.928-1.672 30.6 0 .744.744 1.2 4.412 1.2 9.653v8.453l-9.25 14.34-9.25 14.34-6.643.007c-5.14.006-6.78-.351-7.25-1.575z" style="fill:#fff;fill-opacity:1"/></svg>