<?xml version="1.0" encoding="UTF-8" standalone="no"?>
<!-- Created with Inkscape (http://www.inkscape.org/) -->

<svg
   version="1.1"
   id="svg1"
   width="242"
   height="284"
   viewBox="0 0 242 284"
   sodipodi:docname="LiteERP.svg"
   inkscape:version="1.4 (86a8ad7, 2024-10-11)"
   xmlns:inkscape="http://www.inkscape.org/namespaces/inkscape"
   xmlns:sodipodi="http://sodipodi.sourceforge.net/DTD/sodipodi-0.dtd"
   xmlns="http://www.w3.org/2000/svg"
   xmlns:svg="http://www.w3.org/2000/svg">
  <defs
     id="defs1" />
  <sodipodi:namedview
     id="namedview1"
     pagecolor="#ffffff"
     bordercolor="#000000"
     borderopacity="0.25"
     inkscape:showpageshadow="2"
     inkscape:pageopacity="0.0"
     inkscape:pagecheckerboard="0"
     inkscape:deskcolor="#d1d1d1"
     inkscape:zoom="2.9964789"
     inkscape:cx="120.97532"
     inkscape:cy="142"
     inkscape:window-width="2400"
     inkscape:window-height="1261"
     inkscape:window-x="-9"
     inkscape:window-y="-9"
     inkscape:window-maximized="1"
     inkscape:current-layer="g1" />
  <g
     inkscape:groupmode="layer"
     inkscape:label="Image"
     id="g1">
    <path
       style="fill:#eb3833"
       d="M 87.5,256 C 50.048121,255.63989 34.745254,255.16277 32.802277,254.29463 28.648765,252.43879 22.094349,246.08327 19.677583,241.56821 L 17.5,237.5 17.230626,140.06637 C 16.933862,32.725731 16.680526,37.482785 23.109035,29.683889 c 1.70133,-2.064008 5.410296,-4.97475 8.242146,-6.468315 L 36.5,20.5 H 101 c 62.41513,0 64.63752,0.06465 68.7546,2 5.25263,2.469154 46.41204,43.14686 49.58026,49 2.11679,3.910671 2.17177,5.021704 2.46209,49.75 0.27938,43.04319 -4.9e-4,48.46575 -2.3087,44.73098 -0.81735,-1.32249 -9.19711,-5.50438 -12.73825,-6.35697 L 204,158.9619 V 122.98095 87 H 182.52024 C 165.03128,87 160.2864,86.69828 156.98182,85.376049 150.46564,82.768792 150,80.979638 150,58.54966 V 39 L 95.174314,39 40.348628,39 38.174314,41.314451 36,43.628902 l 0,94.731008 0,94.731 2.454545,2.45454 L 40.909091,238 h 37.566158 37.566161 l 11.72929,8.71058 c 6.45112,4.79083 11.9168,8.84083 12.14597,9 0.22916,0.15918 0.22916,0.40192 0,0.53942 C 139.6875,256.3875 116.1,256.275 87.5,256 Z m 96.49986,-0.16667 c 7e-5,-0.36666 0.35235,-0.81666 0.78284,-1 C 185.21318,254.65 193.39144,244.825 202.95661,233 c 9.56517,-11.825 17.81212,-21.95 18.32656,-22.5 0.58218,-0.62241 0.76373,4.09748 0.48084,12.5 -0.38207,11.34797 -0.81468,14.25532 -2.71387,18.23825 -2.60273,5.45839 -7.68254,10.2809 -13.49933,12.81559 -4.00037,1.74317 -21.55126,3.19238 -21.55095,1.77949 z M 142.70624,235.52428 C 128.0522,223.02786 125,219.39502 125,214.44966 125,210.87882 130.88882,205 134.46574,205 c 4.01402,0 6.22894,1.52715 15.81969,10.9074 4.83199,4.72593 9.31038,8.5926 9.95198,8.5926 1.41495,0 9.7928,-9.86535 22.0797,-26 14.12392,-18.54695 16.13297,-20.5 21.08774,-20.5 5.34457,0 8.24338,2.09386 9.71945,7.02053 1.09986,3.67101 0.97907,4.26212 -1.7207,8.4207 -3.52917,5.43612 -32.13951,40.92032 -39.38836,48.85171 -4.93872,5.40375 -5.46739,5.70706 -9.94758,5.70706 -4.6076,0 -5.11526,-0.32712 -19.36142,-12.47572 z M 65.556704,188.77749 c -2.336153,-3.33532 -2.322969,-51.86837 0.01472,-54.20606 1.281315,-1.28132 4.198268,-1.57143 15.8,-1.57143 9.733333,0 14.607687,0.37912 15.428571,1.2 0.872331,0.87233 1.2,8.3619 1.2,27.42857 0,22.51082 -0.222741,26.45131 -1.571429,27.8 C 95.151042,190.7061 92.262731,191 80.985275,191 67.784099,191 67.038143,190.89254 65.556704,188.77749 Z M 110.2,189.8 C 109.30197,188.90197 109,177.1945 109,143.27525 V 97.950498 l 2.5651,-0.975249 C 112.9759,96.438862 119.40078,96 125.84259,96 c 8.98217,0 12.23048,0.362877 13.9349,1.556704 L 142,99.113408 v 44.371872 c 0,39.00472 -0.19008,44.56194 -1.57143,45.94329 -1.27595,1.27595 -4.15281,1.57143 -15.3,1.57143 -9.34444,0 -14.11178,-0.38321 -14.92857,-1.2 z m 42.40699,-0.38179 C 151.39702,186.26509 151.93205,145.46795 153.2,144.2 c 1.67219,-1.67219 28.92781,-1.67219 30.6,0 0.74405,0.74405 1.2,4.41176 1.2,9.65293 v 8.45292 l -9.25,14.33993 -9.25,14.33993 -6.64301,0.007 c -5.13961,0.006 -6.78038,-0.35084 -7.25,-1.57465 z"
       id="path1" />
  </g>
</svg>
